<svg class="hidden" display="none" xmlns="http://www.w3.org/2000/svg">
  <symbol id="down" viewBox="0 0 97 97">
    <circle cx="48.5" cy="48.5" r="48" ></circle>
    <rect x="34.4255" y="43.9162" width="1.82001" height="20.0201"
      transform="rotate(-44.9975 34.4255 43.9162)" fill="currentColor"></rect>
    <rect x="48.5807" y="58.0737" width="1.82001" height="20.0201"
      transform="rotate(-134.997 48.5807 58.0737)" fill="currentColor"></rect>

  </symbol>
  <symbol id="vk" viewbox="0 0 50 50">
    <path
      d="M25 0C11.1927 0 0 11.1927 0 25C0 38.8073 11.1927 50 25 50C38.8073 50 50 38.8073 50 25C50 11.1927 38.8073 0 25 0ZM34.6146 28.2057C34.6146 28.2057 36.8255 30.388 37.3698 31.401C37.3854 31.4219 37.3932 31.4427 37.3984 31.4531C37.6198 31.8255 37.6719 32.1146 37.5625 32.3307C37.3802 32.6901 36.7552 32.8672 36.5417 32.8828H32.6354C32.3646 32.8828 31.7969 32.8125 31.1094 32.3385C30.5807 31.9687 30.0599 31.362 29.5521 30.7708C28.7943 29.8906 28.138 29.1302 27.4766 29.1302C27.3925 29.1301 27.309 29.1432 27.2292 29.1693C26.7292 29.3307 26.0885 30.0443 26.0885 31.9453C26.0885 32.5391 25.6198 32.8802 25.2891 32.8802H23.5C22.8906 32.8802 19.7161 32.6667 16.9036 29.7005C13.4609 26.0677 10.362 18.7812 10.3359 18.7135C10.1406 18.2422 10.5443 17.9896 10.9844 17.9896H14.9297C15.4557 17.9896 15.6276 18.3099 15.7474 18.5937C15.888 18.9245 16.4036 20.2396 17.25 21.7188C18.6224 24.1302 19.4635 25.1094 20.138 25.1094C20.2645 25.1079 20.3887 25.0757 20.5 25.0156C21.3802 24.526 21.2161 21.388 21.1771 20.737C21.1771 20.6146 21.1745 19.3333 20.724 18.7187C20.401 18.2734 19.8516 18.1042 19.5182 18.0417C19.6531 17.8555 19.8309 17.7045 20.0365 17.6016C20.6406 17.2995 21.7292 17.2552 22.8099 17.2552H23.4115C24.5833 17.2708 24.8854 17.3464 25.3099 17.4531C26.1693 17.6589 26.1875 18.2135 26.112 20.112C26.0885 20.651 26.0651 21.2604 26.0651 21.9792C26.0651 22.1354 26.0573 22.3021 26.0573 22.4792C26.0312 23.4453 26 24.5417 26.6823 24.9922C26.7713 25.048 26.8741 25.0778 26.9792 25.0781C27.2161 25.0781 27.9297 25.0781 29.862 21.763C30.4579 20.696 30.9758 19.5872 31.4115 18.4453C31.4505 18.3776 31.5651 18.1693 31.7005 18.0885C31.8005 18.0376 31.9113 18.0117 32.0234 18.013H36.6615C37.1667 18.013 37.513 18.0885 37.5781 18.2839C37.6927 18.5937 37.5573 19.5391 35.4401 22.4062L34.4948 23.6536C32.5755 26.1693 32.5755 26.2969 34.6146 28.2057Z"
      fill="currentColor" />
  </symbol>
  <symbol id="telegram" viewbox="0 0 50 50" fill="currentColor">
    <path
      d="M47.99 24C47.99 30.36 45.47 36.46 40.97 40.97C36.46 45.47 30.36 48 23.99 48C17.63 48 11.53 45.47 7.02 40.97C2.52 36.46 -0.01 30.36 -0.01 24C-0.01 17.63 2.52 11.53 7.02 7.02C11.53 2.52 17.63 0 23.99 0C30.36 0 36.46 2.52 40.97 7.02C45.47 11.53 47.99 17.63 47.99 24ZM24.86 17.71C22.52 18.68 17.85 20.7 10.86 23.74C9.72 24.19 9.13 24.64 9.07 25.07C8.98 25.8 9.9 26.09 11.14 26.48L11.67 26.64C12.89 27.04 14.54 27.51 15.4 27.53C16.18 27.54 17.04 27.23 18 26.57C24.54 22.15 27.91 19.92 28.12 19.88C28.27 19.84 28.48 19.8 28.62 19.92C28.76 20.05 28.75 20.28 28.73 20.35C28.64 20.73 25.05 24.07 23.19 25.8C22.61 26.34 22.2 26.72 22.12 26.81C21.93 27 21.75 27.18 21.56 27.36C20.42 28.46 19.56 29.28 21.6 30.63C22.58 31.28 23.37 31.81 24.15 32.34C25 32.92 25.85 33.5 26.96 34.23C27.24 34.41 27.51 34.6 27.77 34.79C28.76 35.5 29.66 36.13 30.76 36.03C31.4 35.97 32.06 35.37 32.4 33.57C33.2 29.32 34.76 20.11 35.12 16.32C35.14 16 35.13 15.69 35.08 15.37C35.05 15.12 34.93 14.89 34.74 14.72C34.46 14.53 34.14 14.44 33.81 14.44C32.91 14.46 31.52 14.94 24.86 17.71Z" />
  </symbol>
  <symbol id="pinteres" viewbox="0 0 50 50" fill="currentColor">
    <path
      d="M25 0C11.19 0 -0.01 11.19 -0.01 25C-0.01 35.23 6.15 44.03 14.96 47.89C14.89 46.15 14.95 44.05 15.39 42.15C15.88 40.12 18.61 28.53 18.61 28.53C18.61 28.53 17.81 26.93 17.81 24.58C17.81 20.87 19.96 18.1 22.63 18.1C24.91 18.1 26.01 19.81 26.01 21.86C26.01 24.14 24.55 27.56 23.8 30.73C23.17 33.38 25.13 35.54 27.74 35.54C32.48 35.54 35.67 29.46 35.67 22.25C35.67 16.77 31.98 12.67 25.27 12.67C17.69 12.67 12.96 18.33 12.96 24.64C12.96 26.82 13.6 28.36 14.61 29.55C15.07 30.09 15.14 30.31 14.97 30.94C14.85 31.4 14.57 32.51 14.46 32.95C14.29 33.58 13.78 33.81 13.21 33.57C9.71 32.15 8.09 28.32 8.09 24.02C8.09 16.92 14.08 8.4 25.96 8.4C35.5 8.4 41.78 15.31 41.78 22.73C41.78 32.53 36.33 39.86 28.29 39.86C25.59 39.86 23.06 38.4 22.19 36.74C22.19 36.74 20.73 42.5 20.43 43.62C19.9 45.54 18.86 47.47 17.91 48.97C20.21 49.65 22.6 50 25 50C38.8 50 49.99 38.8 49.99 25C49.99 11.19 38.8 0 25 0Z" />
  </symbol>
  <symbol id="stumble" viewbox="0 0 50 50" fill="currentColor">
    <path
      d="M44.74 9.66C48.15 14.04 50 19.44 49.99 24.99C49.99 38.8 38.8 49.99 25 49.99C15.28 49.99 6.86 44.45 2.72 36.36L13.62 36.36C18.81 36.36 22.44 33.56 22.44 29.09C22.44 19.61 11.5 23.47 11.5 20.1C11.5 18.48 12.8 17.89 15.18 17.89L22.76 17.89C24.87 17.89 27.34 18.27 27.34 20.56L27.34 28.12C27.34 33.59 31.61 36.36 36.04 36.36C40.54 36.36 44.74 33.59 44.74 28.12L44.74 9.66L44.74 9.66Z" />
    <path
      d="M25 0C30.01 -0.01 34.91 1.5 39.06 4.33L39.06 28.3C39.06 29.96 37.7 31.32 36.04 31.32C34.38 31.32 33.02 29.96 33.02 28.3L33.02 21.11C33.02 15.38 30.12 12.99 26.34 12.99L14.04 12.99C9.59 12.99 5.89 15.83 5.89 20.32C5.89 22.62 6.88 25.99 11.54 26.83C15.33 27.51 16.83 27.31 16.83 29.35C16.83 31.32 14.62 31.32 11.71 31.32L0.8 31.32C0.26 29.25 -0.01 27.13 -0.01 25C-0.01 11.19 11.19 0 25 0Z" />
  </symbol>
  <symbol id="mail-icon" viewBox="0 0 36 32" fill="currentColor">
    <path
      d="M1.10021 5.94725C5.89873 9.66669 14.3187 16.2103 16.7934 18.2506C17.1256 18.526 17.4819 18.666 17.8518 18.666C18.221 18.666 18.5767 18.5273 18.9082 18.2533C21.385 16.2109 29.8049 9.66669 34.6035 5.94725C34.9023 5.71612 34.9478 5.30987 34.706 5.02731C34.1468 4.37437 33.3132 4 32.4197 4H3.28396C2.39056 4 1.55684 4.37438 0.997775 5.02738C0.755902 5.30988 0.80145 5.71612 1.10021 5.94725Z" />
    <path
      d="M34.9108 7.96279C34.6526 7.85279 34.3489 7.89116 34.1341 8.05916C28.8126 12.188 22.0209 17.4804 19.8841 19.2427C18.6847 20.2336 17.0202 20.2336 15.8181 19.2414C13.5405 17.3632 5.91363 11.4289 1.56962 8.0591C1.35335 7.8911 1.04893 7.85404 0.792853 7.96273C0.535411 8.07216 0.370361 8.30785 0.370361 8.5676V25.3332C0.370361 26.804 1.67703 27.9999 3.28396 27.9999H32.4198C34.0267 27.9999 35.3333 26.804 35.3333 25.3332V8.5676C35.3333 8.30785 35.1683 8.07154 34.9108 7.96279Z" />
  </symbol>
  <symbol id="phone-icon" viewBox="0 0 36 32" fill="currentColor">
    <path
      d="M29.1358 14.6654H32.0494C32.0494 7.82541 26.4072 2.66675 18.9237 2.66675V5.33341C24.8412 5.33341 29.1358 9.25741 29.1358 14.6654Z" />
    <path
      d="M18.9382 10.6667C22.0019 10.6667 23.3086 11.8627 23.3086 14.6667H26.2222C26.2222 10.3667 23.6364 7.99999 18.9382 7.99999V10.6667ZM23.9234 17.924C23.6435 17.6911 23.2756 17.5669 22.8975 17.5776C22.5194 17.5883 22.1607 17.7331 21.897 17.9813L18.4109 21.2627C17.5718 21.116 15.8848 20.6347 14.1483 19.0493C12.4118 17.4587 11.8859 15.9107 11.73 15.148L15.3123 11.956C15.5839 11.7148 15.7422 11.3864 15.7539 11.0403C15.7656 10.6941 15.6297 10.3574 15.3749 10.1013L9.9921 4.68399C9.73722 4.42714 9.38298 4.27133 9.00462 4.24967C8.62625 4.22801 8.25356 4.3422 7.9657 4.56799L4.80447 7.04933C4.55261 7.28068 4.40228 7.58859 4.382 7.91466C4.36015 8.24799 3.94351 16.144 10.6331 22.2693C16.469 27.6093 23.7792 28 25.7924 28C26.0867 28 26.2674 27.992 26.3154 27.9893C26.6716 27.9711 27.0079 27.8329 27.2594 27.6013L29.9691 24.7067C30.2159 24.4434 30.341 24.1024 30.3176 23.7561C30.2942 23.4098 30.1242 23.0855 29.8438 22.852L23.9234 17.924Z" />
  </symbol>
  <symbol id="address-icon" viewBox="0 0 36 32" fill="currentColor">
    <path
      d="M17.4815 0C11.338 0 6.21411 4.52938 6.21411 10.3125C6.21411 12.5126 6.93645 14.4745 8.32275 16.3129L16.6192 28.1616C17.0217 28.7376 17.9421 28.7365 18.3437 28.1616L26.6762 16.2726C28.0326 14.5175 28.7488 12.4567 28.7488 10.3125C28.7488 4.62619 23.6943 0 17.4815 0ZM17.4815 15C14.6576 15 12.3599 12.8971 12.3599 10.3125C12.3599 7.72794 14.6576 5.625 17.4815 5.625C20.3053 5.625 22.603 7.72794 22.603 10.3125C22.603 12.8971 20.3053 15 17.4815 15Z" />
    <path
      d="M25.4891 21.5435L20.3313 28.9239C18.9962 30.829 15.9593 30.8228 14.6306 28.9257L9.46443 21.5454C4.91897 22.5073 2.11688 24.2693 2.11688 26.375C2.11688 30.0289 10.0333 32 17.4815 32C24.9297 32 32.846 30.0289 32.846 26.375C32.846 24.2678 30.0401 22.5048 25.4891 21.5435Z" />
  </symbol>
  <symbol id="address-icon" viewBox="0 0 36 32" fill="currentColor">
    <path
      d="M17.4815 0C11.338 0 6.21411 4.52938 6.21411 10.3125C6.21411 12.5126 6.93645 14.4745 8.32275 16.3129L16.6192 28.1616C17.0217 28.7376 17.9421 28.7365 18.3437 28.1616L26.6762 16.2726C28.0326 14.5175 28.7488 12.4567 28.7488 10.3125C28.7488 4.62619 23.6943 0 17.4815 0ZM17.4815 15C14.6576 15 12.3599 12.8971 12.3599 10.3125C12.3599 7.72794 14.6576 5.625 17.4815 5.625C20.3053 5.625 22.603 7.72794 22.603 10.3125C22.603 12.8971 20.3053 15 17.4815 15Z"
      fill="currentColor" />
    <path
      d="M25.4891 21.5435L20.3313 28.9239C18.9962 30.829 15.9593 30.8228 14.6306 28.9257L9.46443 21.5454C4.91897 22.5073 2.11688 24.2693 2.11688 26.375C2.11688 30.0289 10.0333 32 17.4815 32C24.9297 32 32.846 30.0289 32.846 26.375C32.846 24.2678 30.0401 22.5048 25.4891 21.5435Z"
      fill="currentColor" />
  </symbol>
</svg>