<svg width="22.000000" height="29.000000" viewBox="0 0 22 29" fill="none" xmlns="http://www.w3.org/2000/svg" xmlns:xlink="http://www.w3.org/1999/xlink">
	<desc>
			Created with Pixso.
	</desc>
	<defs/>
	<path id="Vector" d="M10.48 0C4.33 0 -0.79 4.52 -0.79 10.31C-0.79 12.51 -0.07 14.47 1.32 16.31L9.61 28.16C10.02 28.73 10.94 28.73 11.34 28.16L19.67 16.27C21.03 14.51 21.74 12.45 21.74 10.31C21.74 4.62 16.69 0 10.48 0ZM10.48 15C7.65 15 5.35 12.89 5.35 10.31C5.35 7.72 7.65 5.62 10.48 5.62C13.3 5.62 15.6 7.72 15.6 10.31C15.6 12.89 13.3 15 10.48 15Z" fill="#CD06FF" fill-opacity="1.000000" fill-rule="nonzero"/>
</svg>
