<svg width="35.000000" height="25.000000" viewBox="0 0 35 25" fill="none" xmlns="http://www.w3.org/2000/svg" xmlns:xlink="http://www.w3.org/1999/xlink">
	<desc>
			Created with Pixso.
	</desc>
	<defs/>
	<path id="Vector" d="M0.1 1.94C4.89 5.66 13.31 12.21 15.79 14.25C16.12 14.52 16.48 14.66 16.85 14.66C17.22 14.66 17.57 14.52 17.9 14.25C20.38 12.21 28.8 5.66 33.6 1.94C33.9 1.71 33.94 1.3 33.7 1.02C33.14 0.37 32.31 0 31.41 0L2.28 0C1.39 0 0.55 0.37 -0.01 1.02C-0.25 1.3 -0.2 1.71 0.1 1.94Z" fill="#CD06FF" fill-opacity="1.000000" fill-rule="nonzero"/>
	<path id="Vector" d="M33.91 3.96C33.65 3.85 33.34 3.89 33.13 4.05C27.81 8.18 21.02 13.48 18.88 15.24C17.68 16.23 16.02 16.23 14.81 15.24C12.54 13.36 4.91 7.42 0.56 4.05C0.35 3.89 0.04 3.85 -0.21 3.96C-0.47 4.07 -0.63 4.3 -0.63 4.56L-0.63 21.33C-0.63 22.8 0.67 24 2.28 24L31.41 24C33.02 24 34.33 22.8 34.33 21.33L34.33 4.56C34.33 4.3 34.16 4.07 33.91 3.96Z" fill="#CD06FF" fill-opacity="1.000000" fill-rule="nonzero"/>
</svg>
